<?xml version="1.0" encoding="UTF-8"?>
<svg id="Layer_1" data-name="Layer 1" xmlns="http://www.w3.org/2000/svg" viewBox="0 0 85.13 44.31">
  <defs>
    <style>
      .cls-1 {
        fill: #aa0008;
      }

      .cls-2 {
        fill: #4d1cb6;
      }
    </style>
  </defs>
  <path class="cls-1" d="M25.53,6.57c.04-.1,0-.21-.09-.26-1.06-.63-1.76-1.66-1.76-2.84,0-1.92,1.85-3.47,4.14-3.47s4.14,1.55,4.14,3.47-1.85,3.47-4.14,3.47c-.15,0-.3,0-.45-.02l-2.15,1.38c-.22.14-.49-.11-.36-.34.25-.43.47-.9.67-1.4Z"/>
  <path class="cls-2" d="M0,9.97h21.79l-11,18.83h10.21v5.62H.15L11.1,15.73H0v-5.75Z"/>
  <rect class="cls-2" x="24.66" y="10.31" width="6.33" height="24.43"/>
  <path class="cls-2" d="M33.96,10.31h6.33v2.5c1.44-1.17,2.74-1.99,3.9-2.44,1.17-.46,2.36-.69,3.58-.69,2.5,0,4.62.85,6.37,2.54,1.47,1.44,2.2,3.56,2.2,6.38v16.14h-6.26v-10.7c0-2.92-.13-4.85-.4-5.81s-.74-1.69-1.41-2.19c-.67-.5-1.5-.75-2.49-.75-1.28,0-2.38.41-3.3,1.24-.92.83-1.55,1.98-1.91,3.44-.19.76-.28,2.41-.28,4.96v9.8h-6.33V10.31Z"/>
  <path class="cls-2" d="M78.82,10.31h6.31v20.92c0,4.13-.86,7.17-2.57,9.12-2.3,2.63-5.78,3.95-10.42,3.95-2.47,0-4.55-.3-6.24-.9-1.68-.6-3.11-1.48-4.27-2.64-1.16-1.16-2.02-2.57-2.58-4.23h6.98c.62.69,1.41,1.21,2.39,1.56.97.35,2.13.53,3.46.53,1.7,0,3.07-.25,4.11-.76,1.04-.51,1.77-1.17,2.19-1.98.42-.81.64-2.2.64-4.18-1.11,1.08-2.28,1.85-3.5,2.32-1.22.47-2.61.71-4.15.71-3.39,0-6.25-1.18-8.58-3.55-2.34-2.36-3.5-5.36-3.5-8.98,0-3.88,1.24-6.99,3.71-9.34,2.24-2.13,4.92-3.19,8.03-3.19,1.45,0,2.83.26,4.12.77,1.29.52,2.59,1.37,3.89,2.55v-2.69ZM72.26,15.41c-2,0-3.64.65-4.94,1.94-1.3,1.29-1.95,2.92-1.95,4.88s.67,3.7,2,5.01,3,1.95,5.01,1.95,3.58-.64,4.86-1.91c1.28-1.27,1.91-2.94,1.91-5.01s-.64-3.69-1.93-4.96c-1.28-1.27-2.94-1.91-4.96-1.91Z"/>
</svg>